<svg xmlns="http://www.w3.org/2000/svg" width="1100" height="700" viewBox="0 0 1100 700">
<rect width="100%" height="100%" fill="white"/>
<text x="550.0" y="38" text-anchor="middle" font-size="28" font-family="Arial">Distribution of Words per Clip</text>
<line x1="90" y1="560" x2="1060" y2="560" stroke="black"/>
<line x1="90" y1="80" x2="90" y2="560" stroke="black"/>
<line x1="84" y1="560.00" x2="90" y2="560.00" stroke="black"/>
<line x1="90" y1="560.00" x2="1060" y2="560.00" stroke="#dddddd"/>
<text x="78" y="565.00" text-anchor="end" font-size="13" font-family="Arial">0.0</text>
<line x1="84" y1="464.00" x2="90" y2="464.00" stroke="black"/>
<line x1="90" y1="464.00" x2="1060" y2="464.00" stroke="#dddddd"/>
<text x="78" y="469.00" text-anchor="end" font-size="13" font-family="Arial">15716.4</text>
<line x1="84" y1="368.00" x2="90" y2="368.00" stroke="black"/>
<line x1="90" y1="368.00" x2="1060" y2="368.00" stroke="#dddddd"/>
<text x="78" y="373.00" text-anchor="end" font-size="13" font-family="Arial">31432.8</text>
<line x1="84" y1="272.00" x2="90" y2="272.00" stroke="black"/>
<line x1="90" y1="272.00" x2="1060" y2="272.00" stroke="#dddddd"/>
<text x="78" y="277.00" text-anchor="end" font-size="13" font-family="Arial">47149.2</text>
<line x1="84" y1="176.00" x2="90" y2="176.00" stroke="black"/>
<line x1="90" y1="176.00" x2="1060" y2="176.00" stroke="#dddddd"/>
<text x="78" y="181.00" text-anchor="end" font-size="13" font-family="Arial">62865.6</text>
<line x1="84" y1="80.00" x2="90" y2="80.00" stroke="black"/>
<line x1="90" y1="80.00" x2="1060" y2="80.00" stroke="#dddddd"/>
<text x="78" y="85.00" text-anchor="end" font-size="13" font-family="Arial">78582.0</text>
<rect x="97.28" y="80.00" width="33.95" height="480.00" fill="#4C78A8"/>
<text x="114.25" y="72.00" text-anchor="middle" font-size="13" font-family="Arial">78582</text>
<text x="114.25" y="584.00" text-anchor="middle" font-size="13" font-family="Arial">1.0-23.7</text>
<rect x="145.78" y="486.44" width="33.95" height="73.56" fill="#4C78A8"/>
<text x="162.75" y="478.44" text-anchor="middle" font-size="13" font-family="Arial">12043</text>
<text x="162.75" y="584.00" text-anchor="middle" font-size="13" font-family="Arial">23.7-46.4</text>
<rect x="194.28" y="539.80" width="33.95" height="20.20" fill="#4C78A8"/>
<text x="211.25" y="531.80" text-anchor="middle" font-size="13" font-family="Arial">3307</text>
<text x="211.25" y="584.00" text-anchor="middle" font-size="13" font-family="Arial">46.4-69.1</text>
<rect x="242.78" y="553.80" width="33.95" height="6.20" fill="#4C78A8"/>
<text x="259.75" y="545.80" text-anchor="middle" font-size="13" font-family="Arial">1015</text>
<text x="259.75" y="584.00" text-anchor="middle" font-size="13" font-family="Arial">69.1-91.8</text>
<rect x="291.27" y="557.71" width="33.95" height="2.29" fill="#4C78A8"/>
<text x="308.25" y="549.71" text-anchor="middle" font-size="13" font-family="Arial">375</text>
<text x="308.25" y="584.00" text-anchor="middle" font-size="13" font-family="Arial">91.8-114.5</text>
<rect x="339.77" y="559.17" width="33.95" height="0.83" fill="#4C78A8"/>
<text x="356.75" y="551.17" text-anchor="middle" font-size="13" font-family="Arial">136</text>
<text x="356.75" y="584.00" text-anchor="middle" font-size="13" font-family="Arial">114.5-137.2</text>
<rect x="388.27" y="559.63" width="33.95" height="0.37" fill="#4C78A8"/>
<text x="405.25" y="551.63" text-anchor="middle" font-size="13" font-family="Arial">61</text>
<text x="405.25" y="584.00" text-anchor="middle" font-size="13" font-family="Arial">137.2-159.9</text>
<rect x="436.77" y="559.84" width="33.95" height="0.16" fill="#4C78A8"/>
<text x="453.75" y="551.84" text-anchor="middle" font-size="13" font-family="Arial">26</text>
<text x="453.75" y="584.00" text-anchor="middle" font-size="13" font-family="Arial">159.9-182.6</text>
<rect x="485.27" y="559.94" width="33.95" height="0.06" fill="#4C78A8"/>
<text x="502.25" y="551.94" text-anchor="middle" font-size="13" font-family="Arial">10</text>
<text x="502.25" y="584.00" text-anchor="middle" font-size="13" font-family="Arial">182.6-205.3</text>
<rect x="533.77" y="559.97" width="33.95" height="0.03" fill="#4C78A8"/>
<text x="550.75" y="551.97" text-anchor="middle" font-size="13" font-family="Arial">5</text>
<text x="550.75" y="584.00" text-anchor="middle" font-size="13" font-family="Arial">205.3-228.0</text>
<rect x="582.27" y="559.98" width="33.95" height="0.02" fill="#4C78A8"/>
<text x="599.25" y="551.98" text-anchor="middle" font-size="13" font-family="Arial">4</text>
<text x="599.25" y="584.00" text-anchor="middle" font-size="13" font-family="Arial">228.0-250.7</text>
<rect x="630.77" y="559.99" width="33.95" height="0.01" fill="#4C78A8"/>
<text x="647.75" y="551.99" text-anchor="middle" font-size="13" font-family="Arial">1</text>
<text x="647.75" y="584.00" text-anchor="middle" font-size="13" font-family="Arial">250.7-273.4</text>
<rect x="679.27" y="559.97" width="33.95" height="0.03" fill="#4C78A8"/>
<text x="696.25" y="551.97" text-anchor="middle" font-size="13" font-family="Arial">5</text>
<text x="696.25" y="584.00" text-anchor="middle" font-size="13" font-family="Arial">273.4-296.1</text>
<rect x="727.77" y="559.99" width="33.95" height="0.01" fill="#4C78A8"/>
<text x="744.75" y="551.99" text-anchor="middle" font-size="13" font-family="Arial">1</text>
<text x="744.75" y="584.00" text-anchor="middle" font-size="13" font-family="Arial">296.1-318.8</text>
<rect x="776.27" y="560.00" width="33.95" height="0.00" fill="#4C78A8"/>
<text x="793.25" y="552.00" text-anchor="middle" font-size="13" font-family="Arial">0</text>
<text x="793.25" y="584.00" text-anchor="middle" font-size="13" font-family="Arial">318.8-341.5</text>
<rect x="824.77" y="560.00" width="33.95" height="0.00" fill="#4C78A8"/>
<text x="841.75" y="552.00" text-anchor="middle" font-size="13" font-family="Arial">0</text>
<text x="841.75" y="584.00" text-anchor="middle" font-size="13" font-family="Arial">341.5-364.2</text>
<rect x="873.27" y="560.00" width="33.95" height="0.00" fill="#4C78A8"/>
<text x="890.25" y="552.00" text-anchor="middle" font-size="13" font-family="Arial">0</text>
<text x="890.25" y="584.00" text-anchor="middle" font-size="13" font-family="Arial">364.2-386.9</text>
<rect x="921.77" y="560.00" width="33.95" height="0.00" fill="#4C78A8"/>
<text x="938.75" y="552.00" text-anchor="middle" font-size="13" font-family="Arial">0</text>
<text x="938.75" y="584.00" text-anchor="middle" font-size="13" font-family="Arial">386.9-409.6</text>
<rect x="970.27" y="560.00" width="33.95" height="0.00" fill="#4C78A8"/>
<text x="987.25" y="552.00" text-anchor="middle" font-size="13" font-family="Arial">0</text>
<text x="987.25" y="584.00" text-anchor="middle" font-size="13" font-family="Arial">409.6-432.3</text>
<rect x="1018.77" y="559.99" width="33.95" height="0.01" fill="#4C78A8"/>
<text x="1035.75" y="551.99" text-anchor="middle" font-size="13" font-family="Arial">1</text>
<text x="1035.75" y="584.00" text-anchor="middle" font-size="13" font-family="Arial">432.3-455.0</text>
<text x="575.0" y="655" text-anchor="middle" font-size="16" font-family="Arial">Words per Clip</text>
<text x="28" y="320.0" text-anchor="middle" transform="rotate(-90 28 320.0)" font-size="16" font-family="Arial">Number of Clips</text>
</svg>